{"glyphs":{"0":{"ha":565,"x_min":6,"x_max":558,"o":"m 242 1093 q 337 1095 272 1100 q 424 1078 401 1090 q 455 1055 436 1072 q 490 1016 474 1038 q 515 976 507 994 q 547 849 538 933 q 549 689 557 764 q 526 597 543 643 q 485 509 510 550 q 428 436 460 468 q 344 374 375 386 q 232 363 314 363 l 139 363 l 94 410 q 15 617 22 489 q 65 885 7 744 q 149 1023 99 963 q 242 1093 200 1083 m 358 992 q 296 1021 331 1021 q 267 1017 279 1021 q 243 1000 256 1013 q 219 967 231 988 q 188 911 207 947 q 119 643 119 781 q 123 565 118 588 q 147 500 128 543 q 201 426 172 450 q 254 408 229 401 q 345 479 299 422 q 414 606 392 536 q 433 781 438 681 q 399 939 429 881 q 358 992 388 964 z "},"1":{"ha":340,"x_min":8,"x_max":331,"o":"m 14 808 q 59 869 10 824 q 176 953 108 914 q 281 993 244 993 q 328 974 331 993 q 322 963 326 968 q 308 889 313 951 q 274 593 297 763 q 239 385 250 424 q 179 290 207 281 q 147 410 149 303 q 174 688 146 517 q 199 856 201 851 q 149 829 196 858 q 65 800 111 807 q 14 808 19 793 z "},"2":{"ha":669,"x_min":3,"x_max":657,"o":"m 251 1025 q 368 1038 289 1038 q 457 1029 421 1038 q 520 1000 493 1021 q 569 944 547 979 q 588 908 582 922 q 597 878 594 894 q 599 829 599 863 q 576 717 599 763 q 481 598 557 676 q 333 468 404 519 q 268 411 268 418 q 447 410 268 404 q 605 412 579 414 q 643 394 631 410 q 657 376 657 381 q 643 358 657 371 q 628 349 638 353 q 580 343 618 346 q 490 339 542 340 q 324 335 438 338 q 67 332 114 331 q 15 344 19 333 q 61 400 3 381 q 192 480 92 411 q 351 600 292 549 q 481 911 550 772 q 396 968 456 961 q 303 956 347 975 q 203 888 258 936 q 144 839 160 849 q 106 831 128 829 q 78 838 85 833 q 69 860 72 843 q 123 950 65 897 q 251 1025 181 1003 z "},"3":{"ha":558,"x_min":14,"x_max":557,"o":"m 149 1003 q 282 1007 193 1011 q 473 953 415 1004 q 519 800 531 903 q 425 688 508 719 q 386 667 386 674 q 439 640 386 660 q 510 599 486 622 q 542 539 533 576 q 530 430 556 475 q 440 363 504 385 q 274 329 378 340 q 92 323 171 318 q 14 347 14 328 q 63 364 14 354 q 178 381 113 374 q 308 402 238 388 q 397 426 378 417 q 440 506 440 450 q 390 583 440 557 q 222 617 339 608 q 121 631 136 622 q 132 679 81 653 q 200 701 158 692 q 379 763 326 731 q 406 787 399 775 q 418 821 414 799 q 411 888 425 861 q 360 935 397 914 q 281 962 315 957 q 199 956 246 967 q 107 944 149 944 q 63 953 65 943 q 86 981 58 965 q 149 1003 114 996 z "},"4":{"ha":571,"x_min":-4,"x_max":560,"o":"m 293 928 q 359 982 342 971 q 400 993 376 993 q 433 988 425 993 q 451 960 442 983 q 471 772 465 925 l 476 618 l 518 608 q 551 597 543 603 q 558 576 558 590 q 551 557 558 563 q 518 544 543 551 l 478 535 l 467 471 q 435 344 451 381 q 397 315 419 307 q 374 363 385 319 q 357 471 363 406 q 344 544 353 539 q 181 557 331 550 q 18 572 25 565 q 81 700 -3 593 q 293 928 164 807 m 358 633 q 361 672 360 647 q 365 747 363 696 q 367 833 368 799 q 364 867 367 867 q 258 754 353 867 q 164 629 164 642 q 212 621 164 622 q 308 623 260 619 q 358 633 357 626 z "},"5":{"ha":588,"x_min":14,"x_max":586,"o":"m 181 996 q 384 1000 263 1000 q 535 996 506 1000 q 572 978 564 992 q 565 950 581 965 q 380 937 549 935 q 210 932 211 939 q 199 856 206 922 l 193 788 l 264 782 q 390 758 336 778 q 538 624 492 722 q 542 436 585 525 q 490 372 522 397 q 399 325 457 346 q 300 304 354 308 q 197 308 246 300 q 106 333 147 317 q 39 374 64 349 q 14 426 14 399 q 26 463 14 458 q 181 415 58 475 q 408 439 319 347 q 447 508 442 474 q 432 593 451 543 q 374 670 411 639 q 286 716 338 701 q 172 728 235 731 q 118 729 129 726 q 97 749 107 732 q 89 858 85 772 q 110 968 93 944 q 131 990 118 985 q 181 996 144 994 z "},"6":{"ha":596,"x_min":7,"x_max":593,"o":"m 326 1021 q 393 1026 360 1029 q 429 1010 426 1022 q 413 991 431 1003 q 354 958 394 979 q 202 850 274 918 q 131 743 131 782 q 131 740 131 742 q 135 731 131 732 q 163 740 138 731 q 172 743 168 742 q 295 757 204 756 q 422 749 386 758 q 526 683 479 732 q 582 579 574 633 q 554 433 592 503 q 446 326 517 363 q 387 305 410 310 q 308 300 364 300 q 233 303 256 300 q 183 321 210 307 q 53 459 100 361 q 15 678 7 557 q 97 874 22 796 q 211 965 142 919 q 326 1021 281 1010 m 390 672 q 160 624 285 732 q 128 592 133 601 q 128 563 124 582 q 163 474 136 518 q 224 399 189 429 q 290 361 258 368 q 339 367 311 357 q 392 396 367 376 q 435 439 418 415 q 466 534 463 482 q 447 621 469 586 q 390 672 425 654 z "},"7":{"ha":583,"x_min":6,"x_max":611,"o":"m 290 1003 q 364 1004 324 1003 q 431 1007 404 1006 q 478 1009 457 1008 q 506 1010 500 1010 q 544 899 611 1015 q 345 603 489 800 q 151 363 201 407 q 69 354 69 288 q 71 363 69 358 q 131 497 74 408 q 361 806 189 585 q 435 908 435 904 q 238 910 435 913 q 19 921 40 907 q 26 957 7 929 q 85 990 44 982 q 290 1003 126 997 z "},"8":{"ha":583,"x_min":13,"x_max":572,"o":"m 217 1026 q 290 1038 264 1038 q 338 1025 315 1038 q 406 1007 363 1011 q 509 953 468 999 q 550 844 550 907 q 492 714 550 774 l 464 685 l 503 651 q 554 591 539 621 q 571 521 569 561 q 458 358 572 418 q 392 330 414 333 q 282 326 371 326 q 172 330 197 326 q 110 353 147 333 q 54 390 75 369 q 24 438 33 411 q 14 501 14 465 q 68 642 14 581 l 97 675 l 71 699 q 26 762 39 724 q 24 838 14 800 q 62 919 33 881 q 131 986 90 958 q 217 1026 171 1014 m 347 951 q 303 983 308 983 q 263 963 293 983 q 211 922 233 943 q 146 815 158 872 q 163 759 140 786 q 226 721 186 732 q 311 724 267 710 q 386 772 356 739 q 412 860 422 814 q 347 951 401 907 m 360 619 q 168 597 244 679 q 139 460 104 528 q 253 386 172 393 q 406 436 342 381 q 434 470 428 458 q 440 507 440 482 q 360 619 440 581 z "},"9":{"ha":593,"x_min":14,"x_max":581,"o":"m 217 1029 q 319 1038 264 1039 q 413 1024 375 1036 q 503 967 461 1010 q 564 874 546 925 q 580 745 579 826 q 565 613 581 664 q 481 469 540 529 q 340 385 421 408 q 236 368 282 367 q 190 388 190 369 q 278 447 190 404 q 353 491 331 474 q 400 539 376 508 q 446 615 439 588 q 449 636 450 633 q 435 635 447 639 q 341 623 410 625 q 231 631 272 621 q 14 821 14 671 q 71 953 14 894 q 217 1029 128 1011 m 358 963 q 306 974 331 976 q 243 951 282 972 q 150 824 150 906 q 240 713 150 751 q 315 693 282 694 q 404 704 347 692 l 464 718 l 463 767 q 450 851 461 818 q 413 915 440 882 q 358 963 385 949 z "}," ":{"ha":583,"x_min":0,"x_max":0,"o":""},"!":{"ha":206,"x_min":11,"x_max":194,"o":"m 113 1094 q 157 1111 122 1111 l 193 1111 l 193 1014 q 180 759 192 904 q 160 596 168 614 q 141 579 151 583 q 103 575 131 575 q 50 592 61 575 q 39 669 39 608 q 66 901 39 744 q 113 1094 93 1058 m 36 478 q 59 491 47 489 q 103 490 71 493 q 149 479 133 486 q 169 458 164 472 q 175 415 175 443 q 157 364 175 379 q 96 349 139 349 q 49 358 68 349 q 20 386 29 368 q 15 428 11 404 q 36 478 22 461 z "},"\"":{"ha":351,"x_min":10,"x_max":340,"o":"m 36 1093 q 81 1113 47 1113 q 121 1092 115 1113 q 106 965 131 1060 q 60 849 82 871 q 25 876 36 826 l 18 915 q 17 1015 11 964 q 36 1093 22 1065 m 233 1104 q 288 1111 238 1111 l 339 1111 l 335 1031 q 317 929 331 975 q 285 863 304 883 q 247 854 265 842 q 218 926 228 865 q 218 1038 208 986 q 233 1104 228 1096 z "},"#":{"ha":617,"x_min":14,"x_max":607,"o":"m 268 1067 q 309 1074 274 1074 q 349 1067 344 1075 q 322 940 356 1057 q 324 923 318 925 q 369 922 331 921 l 421 925 q 478 1071 450 997 l 550 1071 l 547 1033 q 535 963 543 1000 q 532 922 526 932 q 563 911 538 911 q 600 897 588 911 q 602 884 606 889 q 579 871 599 879 q 529 857 544 857 q 503 846 511 857 q 485 805 496 839 q 465 738 474 771 q 460 701 457 706 q 497 693 464 694 q 563 680 532 692 q 597 654 594 668 q 490 621 604 621 l 428 621 l 385 533 q 322 425 347 460 q 283 397 296 390 q 274 447 272 404 q 290 542 275 489 q 297 605 303 596 q 240 610 290 614 q 200 601 210 608 q 169 554 190 593 q 108 465 140 501 q 65 433 76 428 q 68 549 42 449 q 80 604 82 597 q 49 618 78 611 q 14 643 14 625 q 24 660 14 654 q 64 671 33 665 l 113 681 l 143 749 q 172 833 174 818 q 131 849 169 849 q 42 879 42 850 q 64 903 42 896 q 142 911 86 910 q 207 924 199 913 q 225 960 211 928 q 253 1028 239 993 q 268 1067 267 1063 m 385 840 q 335 847 381 847 q 285 832 290 847 q 279 817 283 828 q 269 790 275 807 q 258 763 263 774 q 238 696 235 706 q 285 690 242 686 q 335 699 332 696 q 353 736 340 703 q 377 803 367 769 q 385 840 388 836 z "},"$":{"ha":667,"x_min":1,"x_max":654,"o":"m 189 1083 l 236 1111 l 565 1111 l 593 1079 q 622 1003 628 1040 q 575 968 615 967 q 506 1010 544 969 q 458 1042 467 1050 q 440 923 453 1036 q 425 806 426 810 q 436 779 419 785 q 558 716 507 756 q 632 631 610 676 q 653 538 654 585 q 621 449 653 492 q 531 376 589 406 q 413 343 476 350 q 356 334 367 339 q 336 308 344 329 q 320 264 329 296 q 300 217 311 232 q 264 250 275 182 q 260 276 263 261 l 254 333 l 200 344 q 36 435 74 371 q 22 531 1 492 q 50 544 33 550 q 117 499 67 539 q 181 455 150 474 q 231 431 213 436 q 254 433 250 425 q 267 556 256 442 q 281 703 278 669 q 269 725 281 718 q 213 749 258 732 q 124 783 144 771 q 86 831 104 793 q 68 900 68 869 q 102 1001 68 950 q 189 1083 136 1053 m 322 932 q 332 1031 339 1025 q 297 1020 326 1039 q 251 979 268 1001 q 221 919 231 954 q 268 825 203 858 q 297 821 292 813 q 322 932 304 832 m 456 651 q 419 675 425 675 q 409 653 414 675 q 390 544 404 631 q 371 438 378 467 q 399 425 364 414 q 431 439 411 429 q 512 540 504 476 q 456 651 519 603 z "},"%":{"ha":890,"x_min":6,"x_max":893,"o":"m 110 1094 q 221 1111 136 1111 l 306 1111 l 343 1076 q 376 1038 369 1051 q 385 986 382 1024 q 363 859 390 917 q 282 769 335 801 q 186 747 246 750 q 96 764 126 744 q 27 851 49 790 q 18 979 6 913 q 51 1040 24 1006 q 110 1094 79 1075 m 247 1033 q 199 1065 217 1065 q 156 1038 179 1065 q 119 972 132 1010 q 115 891 106 931 q 151 824 124 851 q 177 805 169 807 q 201 813 185 803 q 251 864 232 828 q 275 947 271 900 q 276 999 279 988 q 247 1033 272 1010 m 604 1008 l 699 1111 l 751 1111 q 804 1106 804 1111 q 750 1030 804 1101 q 647 897 696 958 q 444 646 582 818 q 206 376 297 464 q 94 311 115 289 q 116 390 85 321 q 188 514 147 460 q 604 1008 353 736 m 651 738 q 753 741 704 753 q 835 693 803 729 q 874 541 892 631 q 779 406 857 451 q 733 385 753 390 q 672 381 713 381 q 623 383 644 381 q 585 392 601 386 q 555 408 568 399 q 531 433 542 418 q 508 519 510 461 q 528 617 507 576 q 585 692 546 653 q 651 738 624 731 m 736 661 q 656 656 694 707 q 606 544 613 599 q 631 457 600 490 q 672 434 653 432 q 726 468 690 436 q 772 562 769 506 q 736 661 775 618 z "},"&":{"ha":1415,"x_min":14,"x_max":1403,"o":"m 708 -106 q 361 -106 708 -106 q 14 -97 14 -106 q 708 -87 14 -87 q 1403 -97 1403 -87 q 708 -106 1403 -106 z "},"(":{"ha":425,"x_min":13,"x_max":413,"o":"m 243 1086 q 274 1108 260 1104 q 339 1111 289 1111 l 413 1111 l 381 1078 q 176 719 246 935 q 162 665 167 688 q 155 617 157 642 q 153 553 153 592 q 167 417 153 463 q 221 186 229 210 q 185 188 215 172 q 90 274 132 215 q 26 407 47 333 q 14 552 13 457 q 31 703 15 647 q 118 906 58 797 q 243 1086 178 1015 z "},")":{"ha":346,"x_min":14,"x_max":371,"o":"m 56 1065 l 14 1111 l 150 1111 l 193 1064 q 272 938 238 1013 q 319 790 307 864 q 240 353 369 499 q 165 282 208 315 q 104 249 121 249 q 90 253 93 249 q 92 276 88 258 q 121 356 97 304 q 178 499 164 451 q 194 621 192 547 q 165 868 200 753 q 56 1065 129 983 z "},"*":{"ha":383,"x_min":13,"x_max":381,"o":"m 171 1078 q 199 1084 179 1086 q 225 1074 219 1082 q 238 1029 233 1058 q 238 1026 238 1028 q 251 1001 242 1004 q 313 1007 260 999 q 321 1007 318 1007 q 358 1010 349 1011 q 369 997 367 1008 q 333 953 379 975 q 335 942 322 949 q 331 919 361 931 l 319 915 q 292 907 292 910 q 331 867 292 906 q 359 819 367 831 q 299 818 351 807 q 247 824 257 826 q 238 800 238 821 q 228 746 238 781 q 193 725 211 688 q 176 779 183 743 q 160 846 167 839 q 124 836 156 851 q 78 820 104 826 q 38 813 53 814 q 19 819 22 813 q 56 860 19 828 q 92 896 92 892 q 51 908 92 901 q 14 924 14 914 q 50 938 14 935 q 83 946 83 940 q 60 976 83 949 q 42 1010 38 1003 q 74 1019 49 1021 q 124 1007 100 1018 q 158 996 151 992 q 165 1032 165 1000 q 171 1078 165 1072 z "},"+":{"ha":546,"x_min":10,"x_max":538,"o":"m 217 1028 q 244 1039 221 1039 q 278 1013 268 1039 q 301 892 288 986 l 317 789 l 418 786 q 474 784 454 785 q 506 781 493 783 q 522 776 518 779 q 531 767 526 772 q 532 735 536 754 q 518 711 528 717 q 417 704 518 710 l 317 699 l 311 621 q 296 529 304 556 q 272 503 288 503 q 221 621 244 503 q 196 692 210 681 q 113 703 182 703 q 33 713 56 703 q 15 744 10 722 q 33 760 17 756 q 113 771 50 764 l 208 779 l 211 897 q 217 1028 213 1017 z "},",":{"ha":213,"x_min":14,"x_max":207,"o":"m 40 450 q 70 470 57 465 q 110 475 83 475 q 187 450 168 475 q 196 360 206 425 q 182 312 190 329 q 156 276 174 294 q 99 265 107 228 q 107 329 96 288 q 78 350 110 342 q 33 375 53 357 q 14 410 14 393 q 40 450 14 424 z "},"-":{"ha":479,"x_min":11,"x_max":469,"o":"m 158 658 q 456 646 428 668 q 467 614 469 635 q 447 583 464 593 q 235 578 428 574 q 26 596 50 582 q 15 629 11 604 l 18 653 l 158 658 z "},".":{"ha":203,"x_min":14,"x_max":203,"o":"m 38 447 q 113 465 74 469 q 177 430 153 460 q 182 369 201 400 q 82 335 151 324 q 14 400 14 346 q 38 447 14 429 z "},"/":{"ha":583,"x_min":7,"x_max":572,"o":"m 422 1032 l 474 1111 l 524 1111 q 567 1108 561 1111 q 568 1086 572 1106 q 494 931 564 1068 q 376 707 425 793 q 239 480 307 585 q 144 350 171 375 q 49 319 101 310 q 15 365 8 331 q 72 465 21 389 q 313 857 160 600 q 422 1032 353 922 z "},":":{"ha":235,"x_min":11,"x_max":247,"o":"m 44 867 q 161 874 74 899 q 210 828 203 863 q 181 769 217 793 q 109 760 160 756 q 42 779 58 764 q 29 821 28 793 q 44 867 31 849 m 36 461 q 115 475 63 474 q 161 471 146 475 q 194 451 176 467 q 203 354 246 408 q 177 335 190 339 q 124 331 164 331 q 69 334 83 331 q 42 353 54 338 q 15 410 21 375 q 16 443 13 435 q 36 461 19 451 z "},";":{"ha":196,"x_min":11,"x_max":189,"o":"m 40 867 q 52 877 46 874 q 69 883 58 881 q 100 885 81 885 q 169 867 149 885 q 182 814 189 850 q 162 767 178 781 q 108 753 146 754 q 49 768 65 751 q 33 814 35 782 q 40 867 31 846 m 29 442 q 93 457 44 457 q 161 442 144 457 q 178 379 178 426 q 148 279 178 318 q 72 240 118 240 q 38 250 43 240 q 46 288 33 260 q 56 317 57 310 q 38 342 56 325 q 14 392 17 363 q 29 442 11 422 z "},"<":{"ha":649,"x_min":8,"x_max":640,"o":"m 569 1017 q 623 1028 615 1028 q 635 1015 631 1028 q 625 985 640 1001 q 438 855 603 960 q 235 736 274 750 q 271 699 217 729 q 315 675 289 689 q 508 571 454 603 q 582 518 561 539 q 604 474 614 485 q 533 468 594 464 q 485 474 506 471 q 444 486 465 478 q 392 510 424 494 q 303 557 351 531 q 210 611 256 583 q 126 665 165 639 q 58 711 86 690 q 21 743 31 732 q 21 772 10 757 q 83 783 32 786 q 132 785 115 782 q 172 806 149 789 q 332 899 207 826 q 493 989 457 971 q 569 1017 524 1004 z "},"=":{"ha":624,"x_min":-6,"x_max":614,"o":"m 169 924 q 601 918 588 932 q 612 892 613 907 q 597 865 611 876 q 417 846 583 854 q 151 843 251 838 q 62 853 79 849 q 39 871 44 857 q 32 897 33 888 q 47 911 31 906 q 91 919 64 917 q 169 924 118 922 m 208 679 q 526 690 446 696 q 607 653 607 685 q 596 631 607 639 q 547 618 585 624 q 451 610 510 613 q 288 608 393 608 q 154 608 203 608 q 78 610 106 608 q 40 615 50 613 q 25 624 31 618 q 65 665 -6 653 q 208 679 99 671 z "},">":{"ha":722,"x_min":7,"x_max":713,"o":"m 17 1021 q 65 1029 21 1029 q 222 983 110 1029 q 519 867 243 975 q 671 825 640 819 q 708 817 703 831 q 707 799 711 807 q 683 776 703 790 q 629 744 663 763 q 533 693 596 725 q 296 569 408 629 q 63 492 85 457 q 83 522 58 500 q 206 608 106 544 q 371 704 307 672 q 493 778 493 768 q 482 785 493 785 q 337 838 467 785 q 128 929 207 892 q 33 984 58 963 q 17 1021 7 1006 z "},"?":{"ha":497,"x_min":8,"x_max":486,"o":"m 46 1083 l 69 1111 l 385 1111 l 422 1078 q 471 1019 457 1046 q 485 957 485 992 q 440 841 485 899 q 294 714 394 783 q 262 689 272 699 q 247 670 251 679 q 242 646 243 661 q 222 599 239 614 q 202 587 210 588 q 176 593 194 586 q 117 656 131 613 q 133 728 103 699 q 211 785 150 742 q 358 920 329 864 q 332 1029 386 976 q 203 1083 278 1083 q 154 1063 179 1083 q 113 1010 129 1043 q 101 991 106 997 q 91 981 97 985 q 78 976 85 976 q 58 975 71 975 q 18 985 22 975 q 19 1030 10 997 q 46 1083 28 1063 m 164 456 q 184 472 172 468 q 226 475 196 475 q 258 474 247 475 q 276 468 269 472 q 289 456 283 464 q 292 390 314 421 q 223 358 271 358 q 156 389 175 358 q 164 456 138 419 z "},"@":{"ha":935,"x_min":3,"x_max":926,"o":"m 407 1094 q 568 1113 454 1113 q 721 1093 682 1113 q 810 1029 769 1069 q 879 938 851 989 q 917 832 907 888 q 921 732 926 786 q 897 620 915 678 q 847 508 878 563 q 740 374 792 411 q 618 342 689 336 q 514 413 526 349 q 497 443 507 440 q 461 426 486 446 q 313 390 400 381 q 240 411 265 396 q 199 460 215 426 q 185 499 188 482 q 186 546 182 515 q 229 666 193 600 q 318 785 265 732 q 417 858 372 840 q 542 874 463 876 l 613 871 l 613 825 q 603 661 610 756 q 622 414 588 446 q 642 408 633 403 q 682 447 650 413 q 772 613 739 511 q 796 800 806 715 q 776 872 793 835 q 735 940 760 908 q 677 997 710 971 q 611 1035 644 1022 q 568 1047 581 1047 q 511 1031 556 1046 q 370 955 439 1006 q 253 839 301 904 q 157 624 182 744 q 164 413 132 504 q 213 318 183 353 q 294 258 243 283 q 490 222 388 213 q 771 303 592 232 q 828 313 822 324 q 794 264 835 303 q 605 166 722 194 q 349 156 488 138 q 212 190 263 168 q 113 261 161 213 q 65 319 79 296 q 36 381 50 342 q 18 592 4 475 q 88 810 32 710 q 172 922 118 864 q 289 1026 226 979 q 407 1094 351 1072 m 500 768 q 492 811 500 811 q 469 801 485 811 q 437 776 454 792 q 401 740 419 760 q 368 703 382 721 q 299 567 317 633 q 306 468 282 501 q 392 485 335 425 q 467 615 433 529 q 500 768 500 701 z "},"A":{"ha":560,"x_min":13,"x_max":549,"o":"m 335 946 q 396 965 363 965 q 449 946 429 965 q 485 885 472 921 q 506 791 499 850 q 517 625 513 732 q 535 413 522 461 q 547 333 546 369 q 539 289 549 296 q 508 297 526 282 q 475 340 489 313 q 447 451 457 375 q 435 536 439 525 q 390 551 429 546 q 283 581 346 558 q 211 603 218 603 q 184 567 203 603 q 154 497 165 532 q 114 389 140 453 q 88 338 99 353 q 64 318 78 322 q 24 324 40 308 q 14 343 14 333 q 21 382 14 353 q 60 484 29 413 q 93 567 90 556 q 169 718 106 600 q 335 946 261 894 m 421 906 q 401 919 410 921 q 368 892 393 917 q 288 778 336 857 q 239 681 239 699 q 331 643 239 668 q 432 628 422 618 q 438 765 442 639 q 421 906 433 892 z "},"B":{"ha":515,"x_min":11,"x_max":507,"o":"m 86 915 q 290 983 151 979 q 374 968 340 983 q 432 915 407 953 q 466 833 453 886 q 472 753 479 781 q 454 718 469 739 q 419 678 439 697 q 385 651 400 660 q 360 631 360 639 q 385 613 360 622 q 453 556 411 601 q 500 488 494 511 q 500 426 507 463 q 479 375 493 390 q 400 326 464 358 q 331 299 358 306 q 249 289 304 292 q 143 274 163 283 q 79 315 99 253 q 44 661 57 389 q 26 822 38 799 q 14 863 11 850 q 39 885 17 876 q 86 915 63 894 m 375 733 q 388 783 390 749 q 374 851 385 817 q 340 911 364 885 q 285 938 315 938 q 206 916 256 938 q 132 871 156 894 l 101 842 l 121 732 q 150 488 140 628 q 169 340 160 354 q 237 334 182 326 q 344 365 292 342 q 394 394 381 382 q 417 424 408 406 q 420 488 431 456 q 386 545 410 519 q 324 587 363 571 q 242 603 285 603 q 176 617 189 603 q 192 640 165 629 q 250 657 208 646 q 319 690 279 665 q 375 733 358 714 z "},"C":{"ha":556,"x_min":3,"x_max":544,"o":"m 299 958 q 344 963 311 961 q 411 962 378 965 q 444 947 444 958 q 394 926 444 935 q 206 822 283 911 q 103 596 129 733 q 102 492 94 546 q 129 413 110 439 q 193 364 144 393 l 242 336 l 308 351 q 465 447 432 378 q 517 494 489 497 q 543 439 544 490 q 539 410 542 419 q 528 390 536 400 q 499 361 519 379 q 271 278 415 285 q 169 285 203 275 q 96 326 135 294 q 22 457 42 371 q 25 642 3 543 q 124 849 53 767 q 299 958 196 932 z "},"D":{"ha":638,"x_min":10,"x_max":626,"o":"m 207 957 q 292 964 272 964 q 356 957 313 964 q 513 892 446 943 q 607 768 581 842 q 622 713 619 736 q 622 643 625 689 q 515 398 613 483 q 243 313 417 313 q 176 310 189 313 q 163 296 163 307 q 144 263 163 279 q 104 256 126 246 q 92 265 97 260 q 83 284 88 269 q 77 317 79 299 q 73 376 75 336 q 69 460 71 415 q 67 583 68 506 q 51 803 61 803 q 24 819 38 803 q 15 846 11 835 q 85 916 28 883 q 207 957 142 949 m 367 881 q 200 886 286 919 l 158 871 l 161 625 q 167 376 164 382 q 240 378 172 368 q 340 403 308 389 q 430 460 394 426 q 483 540 465 493 q 506 651 501 586 q 506 720 508 700 q 489 769 503 740 q 367 881 456 840 z "},"E":{"ha":414,"x_min":3,"x_max":407,"o":"m 117 814 q 181 833 149 829 q 283 836 213 838 q 391 819 376 833 q 401 796 406 804 q 288 781 394 786 q 158 768 182 776 q 119 724 135 760 q 106 651 103 688 l 108 617 l 222 613 q 347 600 336 607 q 358 573 363 590 q 335 549 354 556 q 203 539 314 539 q 107 536 122 539 q 86 515 92 533 q 90 413 65 461 q 232 365 117 361 q 235 367 232 365 q 363 369 344 371 q 381 350 381 367 q 381 349 381 349 q 373 328 381 333 q 336 314 365 322 q 208 305 283 300 q 93 329 133 310 q 19 413 36 357 q 32 536 3 469 q 46 578 44 565 q 40 614 47 592 q 49 726 24 663 q 117 814 74 790 z "},"F":{"ha":600,"x_min":13,"x_max":589,"o":"m 188 949 q 446 955 336 956 q 571 947 556 954 q 588 926 586 939 q 574 903 589 914 q 510 890 568 897 q 369 875 453 882 q 215 864 286 868 l 165 861 l 160 803 q 150 699 154 761 l 147 653 l 201 657 q 358 661 251 661 q 479 640 475 661 q 474 622 481 633 q 436 608 467 613 q 306 600 406 604 q 138 590 147 593 q 107 474 128 588 q 79 333 86 357 q 57 297 72 308 q 23 297 33 282 q 14 360 13 311 q 63 711 17 497 q 85 860 89 844 q 57 879 82 868 q 26 901 28 892 q 50 926 25 911 q 188 949 74 943 z "},"G":{"ha":842,"x_min":14,"x_max":838,"o":"m 426 1029 q 518 1033 476 1035 q 587 1020 560 1031 q 611 994 614 1010 q 595 982 610 985 q 531 978 581 979 q 229 858 353 974 q 129 674 149 783 q 158 463 110 565 q 258 330 196 381 q 371 290 321 279 q 476 335 429 304 q 550 407 524 365 q 576 494 576 449 l 576 531 l 508 531 q 453 533 468 531 q 435 544 438 536 q 442 570 428 561 q 506 590 457 579 q 721 628 635 621 q 822 615 807 635 q 824 585 836 599 q 775 561 811 571 q 765 558 771 560 q 717 528 722 549 q 728 397 713 508 q 729 392 729 393 q 730 387 729 390 q 731 381 731 383 q 731 375 731 378 q 732 369 732 372 q 731 286 740 306 q 688 268 722 267 q 654 280 664 271 q 625 329 644 289 q 618 326 625 329 q 600 315 611 322 q 576 300 589 308 q 388 233 496 243 q 206 263 281 222 q 68 407 122 308 q 14 613 14 506 q 31 720 14 658 q 71 824 47 782 q 213 956 117 900 q 426 1029 310 1011 z "},"H":{"ha":478,"x_min":10,"x_max":468,"o":"m 115 1074 q 146 1083 124 1086 q 176 1065 168 1081 q 192 886 186 1047 l 199 725 l 335 725 l 340 775 q 349 911 347 824 q 360 1014 351 997 q 398 1030 367 1031 q 438 1013 429 1029 q 459 863 451 988 q 464 575 467 738 q 459 380 463 414 q 440 324 456 346 q 393 294 419 294 q 369 301 378 294 q 351 324 360 307 q 338 373 340 343 q 336 486 335 403 q 336 492 336 488 q 338 541 338 526 q 336 577 338 556 q 334 605 335 599 q 327 622 333 611 q 317 633 321 632 q 300 638 313 635 q 278 640 288 640 q 247 638 269 639 q 246 638 246 638 l 189 635 l 182 511 q 124 268 169 276 q 93 288 104 265 q 82 383 85 304 q 85 563 79 461 l 89 643 l 56 646 q 15 663 19 650 q 22 690 10 676 q 53 703 35 703 q 77 708 69 703 q 91 735 85 713 q 99 792 97 757 q 103 897 101 826 q 115 1074 108 1061 z "},"I":{"ha":271,"x_min":10,"x_max":268,"o":"m 53 922 q 144 936 81 944 q 239 900 207 928 q 256 817 268 874 q 203 739 243 760 q 125 732 185 729 q 71 740 85 735 q 40 764 57 746 q 14 847 10 797 q 53 922 18 896 m 153 874 q 122 892 131 892 q 101 874 114 892 q 87 822 86 849 q 103 780 88 796 q 140 775 119 764 q 176 823 171 792 q 153 874 181 854 m 56 658 q 88 662 60 665 q 124 649 115 658 q 132 471 129 644 l 136 299 l 99 296 q 53 308 64 293 q 36 381 43 322 q 36 473 33 414 q 44 591 39 532 q 56 658 50 650 z "},"J":{"ha":694,"x_min":11,"x_max":686,"o":"m 607 1086 q 661 1087 651 1089 q 679 1071 671 1085 q 679 1050 685 1060 q 654 1035 674 1040 q 608 1029 635 1029 q 486 1019 560 1029 q 413 1001 413 1008 q 439 938 413 993 q 494 785 465 875 q 531 642 522 694 q 515 464 542 557 q 436 324 488 371 q 305 304 388 276 q 185 406 222 332 q 169 445 172 428 q 171 493 167 463 q 204 585 176 547 q 263 618 232 622 q 278 593 276 617 q 271 492 281 569 q 269 442 267 457 q 288 404 272 428 q 339 358 311 369 q 367 351 360 349 q 386 368 375 353 q 433 449 401 385 q 456 510 451 486 q 461 585 461 533 q 457 656 461 635 q 439 708 453 678 q 379 861 414 751 q 333 983 344 971 q 303 988 328 990 q 203 969 278 986 q 55 945 92 947 q 14 958 18 943 q 32 982 11 972 q 126 1011 53 992 q 362 1057 210 1033 q 607 1086 514 1081 z "},"K":{"ha":557,"x_min":6,"x_max":546,"o":"m 143 1010 q 152 1019 147 1019 q 179 1011 157 1019 q 201 978 200 1004 q 189 858 203 951 q 181 764 176 772 q 215 781 185 758 q 290 843 244 803 q 382 929 336 883 q 431 976 413 958 q 465 1002 450 993 q 485 1010 479 1011 q 497 1003 492 1010 q 494 966 504 992 q 460 907 483 940 q 399 835 436 874 q 321 760 363 797 q 239 683 239 689 q 297 649 239 679 q 400 578 351 622 q 484 483 449 535 q 535 379 519 431 q 544 334 544 346 q 535 308 544 322 q 515 290 526 294 q 479 285 504 285 q 443 292 458 285 q 419 312 428 299 q 411 344 411 325 q 379 428 411 371 q 308 526 347 485 q 249 581 282 556 q 189 619 215 607 q 157 621 163 631 q 136 521 150 610 q 49 303 100 303 q 15 379 7 303 q 31 467 18 399 q 62 623 44 536 q 97 794 79 710 q 127 940 114 879 q 143 1010 140 1001 z "},"L":{"ha":147,"x_min":13,"x_max":138,"o":"m 50 953 q 58 967 54 963 q 70 973 63 971 q 90 975 78 975 q 131 958 124 975 q 131 875 138 942 q 117 557 124 790 q 103 297 110 318 q 68 276 96 276 q 42 283 50 276 q 25 311 35 289 q 15 373 17 332 q 17 535 13 414 q 50 953 28 890 z "},"M":{"ha":649,"x_min":10,"x_max":640,"o":"m 447 969 l 467 1014 l 515 1007 q 569 994 563 1001 q 590 877 578 986 q 607 671 603 768 q 628 451 613 565 q 633 332 639 361 q 599 303 628 303 q 559 325 579 303 q 526 383 539 347 q 492 706 504 443 q 481 754 490 750 q 418 650 471 757 q 374 561 390 592 q 342 516 357 531 q 315 504 326 501 q 288 524 303 507 q 254 581 271 543 q 203 724 238 619 q 154 839 163 839 q 153 714 146 839 q 126 407 163 528 q 100 347 114 363 q 57 326 86 332 q 14 338 18 319 q 46 471 11 360 q 62 731 61 519 q 79 974 63 942 q 109 1001 92 997 q 157 989 126 1004 q 192 963 175 979 q 225 920 208 947 q 257 857 242 893 q 290 769 272 821 q 326 696 315 696 q 338 710 332 697 q 447 969 342 726 z "},"N":{"ha":446,"x_min":8,"x_max":433,"o":"m 311 953 q 347 976 321 975 q 392 954 372 976 q 433 717 433 911 q 428 592 433 624 q 400 490 424 561 q 356 379 365 389 q 304 368 346 365 l 263 371 l 215 475 q 143 659 168 579 q 108 739 118 739 q 107 546 101 739 q 110 382 111 417 q 99 339 108 347 q 51 386 71 315 q 19 583 35 446 q 19 782 10 694 q 43 881 29 858 q 93 900 57 903 q 115 896 106 899 q 133 883 124 893 q 151 857 143 872 q 172 814 160 842 q 196 751 183 786 q 226 661 208 717 q 254 585 240 619 q 278 531 268 550 q 292 513 288 513 q 317 608 311 513 q 313 813 324 704 q 311 953 300 928 z "},"O":{"ha":497,"x_min":1,"x_max":486,"o":"m 203 835 q 264 848 213 846 q 343 839 315 850 q 406 793 368 829 q 460 726 443 757 q 483 601 479 689 q 483 519 486 542 q 463 458 479 497 q 397 367 439 408 q 315 315 354 325 q 214 313 282 307 q 153 323 174 317 q 110 344 132 329 q 16 521 31 401 q 63 732 1 640 q 120 791 82 761 q 176 821 158 821 q 203 835 192 821 m 392 651 q 358 715 379 683 q 308 769 338 746 q 244 793 278 793 q 175 764 211 793 q 127 708 143 733 q 99 643 111 683 q 92 505 81 569 q 144 397 103 440 q 238 353 185 353 q 311 376 282 353 q 367 451 340 399 q 392 651 421 563 z "},"P":{"ha":604,"x_min":-17,"x_max":614,"o":"m 79 956 q 243 961 90 965 q 433 944 396 957 q 580 838 546 907 q 557 692 614 769 q 429 603 518 640 q 233 560 340 567 l 146 553 l 136 453 q 81 271 118 271 q 57 285 69 271 q 40 317 43 297 q 38 415 38 338 q 54 644 39 481 q 71 835 69 807 l 74 889 l 43 893 q 42 932 -17 901 q 79 956 71 946 m 392 892 q 292 914 350 908 q 192 914 233 919 l 156 907 l 149 771 q 146 622 142 638 q 246 622 153 603 q 403 672 339 640 q 493 778 482 713 q 469 842 497 810 q 392 892 440 874 z "},"Q":{"ha":674,"x_min":13,"x_max":671,"o":"m 242 994 q 307 1008 267 1010 q 422 989 347 1007 q 576 914 525 965 q 651 760 628 863 q 653 601 671 679 q 582 460 635 522 q 556 419 556 425 q 582 374 556 411 q 608 313 617 326 q 549 321 600 299 q 490 354 508 339 q 474 364 481 364 q 449 356 467 364 q 358 331 426 343 q 171 356 256 314 q 38 494 86 399 q 14 613 13 539 q 40 740 15 688 q 133 888 72 811 q 242 994 194 965 m 375 919 q 361 924 371 921 q 297 932 310 936 q 251 889 283 928 q 249 885 250 886 q 246 882 247 885 q 242 878 244 879 q 156 744 189 813 q 126 676 133 700 q 119 617 119 653 q 158 487 119 546 q 261 396 196 428 q 295 386 282 386 q 336 393 308 386 q 394 418 379 406 q 402 438 406 429 q 368 476 399 446 q 331 532 331 515 q 371 549 332 549 q 435 521 404 549 q 476 497 467 493 q 513 549 488 500 q 533 603 529 582 q 536 681 536 624 q 532 735 535 714 q 524 772 529 757 q 510 807 519 788 q 451 878 489 846 q 375 919 413 910 z "},"R":{"ha":542,"x_min":10,"x_max":532,"o":"m 176 1047 q 281 1051 231 1057 q 363 1026 332 1044 q 453 923 429 985 q 449 806 476 861 q 385 722 429 769 q 310 656 342 674 q 276 628 279 639 q 294 607 272 617 q 302 602 297 606 q 313 593 307 599 q 326 580 319 588 q 342 564 333 572 q 358 545 350 556 q 375 525 367 535 q 475 433 435 454 q 529 382 532 406 q 468 358 526 358 q 417 363 433 358 q 376 388 401 368 q 285 486 342 414 q 217 561 240 542 q 164 589 194 581 q 130 576 139 593 q 117 494 121 560 q 97 358 113 418 q 52 276 74 269 q 19 382 31 283 q 15 725 10 454 q 31 1010 21 996 q 67 1021 42 1021 q 111 1029 96 1021 q 176 1047 129 1039 m 290 986 q 207 999 267 1004 q 129 971 147 993 q 125 817 119 958 l 132 675 l 156 682 q 263 738 203 693 q 343 822 322 782 q 349 906 364 861 q 290 986 335 951 z "},"S":{"ha":388,"x_min":8,"x_max":411,"o":"m 151 894 q 185 919 178 917 q 217 911 193 921 q 194 828 269 892 q 122 722 122 767 q 128 707 122 714 q 149 692 135 700 q 189 672 164 683 q 294 604 242 647 q 364 528 347 561 q 274 360 411 438 q 133 327 207 322 q 28 376 60 332 q 15 435 8 404 q 46 467 22 467 q 106 431 57 467 q 172 394 154 394 q 236 423 194 394 q 282 471 278 451 q 238 551 290 501 q 108 636 186 600 q 35 687 50 663 q 32 758 19 711 q 66 817 40 788 q 151 894 92 846 z "},"T":{"ha":400,"x_min":3,"x_max":389,"o":"m 169 983 q 197 988 179 989 q 222 981 215 988 q 240 821 224 979 q 256 661 256 663 q 317 650 258 651 q 377 642 367 647 q 388 617 388 638 q 333 575 388 575 q 281 569 301 575 q 262 548 264 565 q 261 431 260 531 q 262 342 261 375 q 257 293 263 310 q 242 272 251 276 q 215 267 233 267 q 174 293 183 267 q 161 425 164 319 l 157 553 l 94 557 q 23 576 43 561 q 22 606 3 590 q 92 629 42 622 q 149 643 142 636 q 157 813 157 649 q 169 983 157 975 z "},"U":{"ha":403,"x_min":14,"x_max":390,"o":"m 46 865 q 81 874 53 876 l 108 871 l 108 703 q 119 519 108 563 q 169 433 129 475 q 215 405 197 406 q 250 432 233 404 q 268 664 286 493 q 260 755 260 738 q 272 781 261 772 q 324 780 292 794 q 372 733 356 765 q 387 688 383 713 q 390 603 390 663 q 317 376 389 439 q 281 353 296 357 q 219 349 265 349 q 160 353 179 349 q 122 369 142 357 q 60 431 83 396 q 25 516 36 467 q 14 635 14 565 q 24 771 14 693 q 46 865 35 849 z "},"V":{"ha":599,"x_min":8,"x_max":593,"o":"m 14 942 q 51 957 19 957 q 100 932 83 957 q 165 784 128 892 q 228 590 203 676 q 257 503 254 503 q 297 569 261 503 q 485 867 393 747 q 546 935 524 917 q 582 944 568 953 q 568 880 593 938 q 433 597 543 822 q 317 376 358 443 q 246 288 276 308 q 228 278 233 278 q 215 289 224 279 q 203 324 203 306 q 183 365 203 340 q 144 475 165 390 q 42 832 88 699 q 14 942 10 931 z "},"W":{"ha":774,"x_min":11,"x_max":764,"o":"m 626 814 q 676 939 626 939 q 723 915 701 939 q 756 856 744 892 q 760 722 764 822 q 746 560 757 621 q 710 457 736 508 q 650 371 683 406 q 610 336 622 342 q 556 331 597 331 q 506 335 518 331 q 481 360 494 339 q 431 463 460 390 q 393 536 400 535 q 386 527 392 538 q 372 497 381 517 q 354 454 363 478 q 305 354 326 378 q 242 331 283 331 q 206 335 217 331 q 179 358 194 340 q 127 478 150 393 q 96 681 104 564 q 78 793 89 763 q 40 840 68 824 q 20 856 28 849 q 14 867 13 863 q 51 878 22 878 q 107 867 79 878 q 190 710 172 838 q 232 486 225 494 q 251 506 242 476 q 282 675 264 546 q 306 778 293 758 q 360 800 318 799 q 415 792 406 803 q 472 661 426 779 q 513 564 497 600 q 538 505 528 528 q 554 474 549 482 q 564 467 560 467 q 594 516 581 467 q 617 646 608 565 q 626 814 626 726 z "},"X":{"ha":542,"x_min":6,"x_max":539,"o":"m 50 890 q 85 900 56 903 q 121 881 104 899 q 183 800 138 864 q 261 703 250 704 q 284 722 265 703 q 322 769 303 742 q 468 876 438 919 l 471 869 q 462 826 476 856 q 392 710 447 797 q 340 625 350 647 q 336 590 329 603 q 436 468 344 571 q 528 331 539 353 q 496 321 521 322 q 422 344 460 321 q 331 425 383 368 q 258 494 264 494 q 215 436 251 494 q 119 318 178 378 q 42 258 61 258 q 17 267 21 258 q 35 341 7 281 q 117 483 63 401 l 193 601 l 138 699 q 50 890 42 864 z "},"Y":{"ha":435,"x_min":11,"x_max":439,"o":"m 39 918 q 82 925 43 925 q 124 913 110 925 q 193 828 139 900 q 273 729 267 729 q 311 782 279 729 q 406 874 371 881 q 403 801 438 867 q 308 649 379 754 q 203 481 232 532 q 97 356 147 392 q 18 353 46 321 q 15 373 11 363 q 42 410 19 383 q 194 635 207 619 q 188 642 193 636 q 178 656 183 649 q 166 672 174 663 q 153 690 158 682 q 92 782 121 732 q 49 870 64 832 q 39 918 33 908 z "},"Z":{"ha":651,"x_min":3,"x_max":644,"o":"m 390 874 q 554 883 499 879 q 588 872 575 883 q 597 842 600 860 q 381 617 593 826 q 165 403 169 410 q 173 401 164 403 q 199 399 182 400 q 237 399 215 399 q 285 398 258 399 q 342 397 313 397 q 543 389 481 397 q 628 360 606 381 q 633 333 643 347 q 585 322 625 322 q 433 332 544 322 q 284 338 351 340 q 42 318 217 335 q 15 331 24 317 q 65 431 4 350 q 226 611 125 511 q 397 771 354 738 q 444 814 443 807 q 319 814 444 819 q 122 839 122 807 q 179 859 122 851 q 390 874 236 867 z "},"[":{"ha":1415,"x_min":14,"x_max":1403,"o":"m 708 -106 q 361 -106 708 -106 q 14 -97 14 -106 q 708 -87 14 -87 q 1403 -97 1403 -87 q 708 -106 1403 -106 z "},"]":{"ha":1415,"x_min":14,"x_max":1403,"o":"m 708 -106 q 361 -106 708 -106 q 14 -97 14 -106 q 708 -87 14 -87 q 1403 -97 1403 -87 q 708 -106 1403 -106 z "},"a":{"ha":557,"x_min":8,"x_max":546,"o":"m 292 906 q 349 956 333 946 q 390 965 364 965 q 478 896 449 965 q 496 838 489 869 q 507 758 503 807 q 514 625 511 710 q 532 413 519 461 q 544 328 544 364 q 541 299 544 303 q 521 296 538 294 q 473 339 493 299 q 446 450 453 379 q 432 536 435 528 q 388 551 428 546 q 281 581 343 558 q 206 603 217 603 q 180 567 197 601 q 150 492 163 533 q 113 389 131 433 q 85 338 96 353 q 61 318 75 322 q 22 324 38 308 q 18 376 8 338 q 71 517 28 414 q 292 906 186 797 m 419 906 q 399 919 407 921 q 367 892 390 917 q 285 778 333 857 q 236 681 236 699 q 282 657 236 672 q 375 632 328 642 q 429 628 422 622 q 435 765 440 639 q 419 906 431 892 z "},"b":{"ha":514,"x_min":10,"x_max":503,"o":"m 207 975 q 289 983 235 982 q 372 968 339 983 q 431 915 406 953 q 465 833 453 885 q 471 754 478 782 q 437 699 465 732 q 383 651 408 665 q 375 617 336 629 q 424 584 394 610 q 475 526 453 558 q 501 454 501 492 q 479 382 501 410 q 400 326 457 354 q 350 304 369 311 q 308 294 331 297 q 243 289 286 292 q 144 276 153 285 q 116 267 132 264 q 89 288 100 271 q 71 336 78 304 q 59 426 64 368 q 47 593 54 485 q 24 822 38 789 q 15 868 11 851 q 38 885 18 885 q 76 908 53 885 q 131 946 92 926 q 207 975 169 965 m 331 914 q 285 939 308 939 q 233 928 264 938 q 174 902 203 918 q 131 871 146 886 l 100 842 l 119 732 q 149 493 139 629 q 167 347 158 361 q 321 358 188 308 q 402 403 381 382 q 422 463 424 425 q 370 558 421 519 q 239 603 319 597 q 236 654 100 613 q 343 707 303 674 q 371 733 364 724 q 381 752 378 742 q 383 785 383 763 q 331 914 383 857 z "},"c":{"ha":556,"x_min":-3,"x_max":544,"o":"m 299 958 q 344 963 311 961 q 411 962 378 965 q 444 947 444 958 q 394 926 444 935 q 206 822 283 911 q 103 596 129 733 q 102 492 94 546 q 129 413 110 439 q 193 364 144 393 l 242 336 l 308 351 q 465 447 432 379 q 517 494 489 497 q 543 439 544 490 q 539 410 542 419 q 528 390 536 400 q 499 361 519 379 q 271 278 415 285 q 157 288 189 274 q 34 421 69 325 q 25 642 -1 517 q 124 849 53 767 q 299 958 196 932 z "},"d":{"ha":638,"x_min":10,"x_max":626,"o":"m 207 957 q 292 964 272 964 q 356 957 313 964 q 513 892 446 943 q 607 768 581 842 q 622 713 619 736 q 622 643 625 689 q 515 398 613 483 q 243 313 417 313 q 176 310 189 313 q 163 296 163 307 q 144 263 163 279 q 104 256 126 246 q 92 265 97 260 q 83 284 88 269 q 77 317 79 299 q 73 376 75 336 q 69 460 71 415 q 67 583 68 506 q 51 803 61 803 q 24 819 38 803 q 15 846 11 835 q 85 916 28 883 q 207 957 142 949 m 379 874 q 200 886 289 919 l 158 871 l 161 625 q 167 376 164 382 q 192 372 169 371 q 241 378 214 374 q 297 389 268 382 q 340 403 325 396 q 460 497 421 439 q 506 649 499 554 q 481 785 511 732 q 379 874 451 838 z "},"e":{"ha":414,"x_min":3,"x_max":407,"o":"m 144 826 q 279 838 183 840 q 392 819 375 835 q 401 796 406 804 q 288 781 394 786 q 158 768 182 776 q 119 724 135 760 q 106 651 103 688 l 108 617 l 222 613 q 347 600 336 607 q 358 573 363 590 q 335 549 354 556 q 203 539 314 539 q 107 536 122 539 q 86 515 92 533 q 90 413 65 461 q 232 365 117 361 q 235 367 232 365 q 363 369 344 371 q 381 350 381 367 q 381 349 381 349 q 373 328 381 333 q 336 314 365 322 q 208 305 283 300 q 93 329 133 310 q 19 413 36 357 q 32 536 3 469 q 46 578 44 565 q 40 614 47 592 q 53 738 21 671 q 144 826 86 804 z "},"f":{"ha":600,"x_min":13,"x_max":589,"o":"m 188 949 q 446 955 336 956 q 571 947 556 954 q 588 926 586 939 q 574 903 589 914 q 510 890 568 897 q 369 875 453 882 q 215 864 286 868 l 165 861 l 160 803 q 150 699 154 761 l 147 653 l 201 657 q 358 661 251 661 q 479 640 475 661 q 474 622 481 633 q 436 608 467 613 q 306 600 406 604 q 138 590 147 593 q 107 474 128 588 q 79 333 86 357 q 57 297 72 308 q 23 297 33 282 q 14 360 13 311 q 63 711 17 497 q 85 860 89 844 q 57 879 82 868 q 26 901 28 892 q 50 926 25 911 q 188 949 74 943 z "},"g":{"ha":844,"x_min":14,"x_max":840,"o":"m 426 1029 q 556 1028 497 1039 q 611 994 615 1018 q 595 982 610 985 q 531 978 581 979 q 229 858 353 974 q 129 674 149 783 q 158 463 110 565 q 258 330 196 381 q 371 290 321 279 q 476 335 429 304 q 550 407 524 365 q 576 494 576 449 l 576 531 l 504 531 q 444 533 460 531 q 425 544 429 536 q 429 567 419 558 q 575 604 440 578 q 754 631 710 631 q 819 617 799 631 q 828 588 840 604 q 775 561 815 571 q 765 558 771 560 q 717 528 722 549 q 728 397 713 508 q 729 392 729 393 q 730 387 729 390 q 731 381 731 383 q 731 375 731 378 q 732 369 732 372 q 731 286 740 306 q 688 268 722 267 q 654 280 664 271 q 625 329 644 289 q 618 326 625 329 q 600 315 611 322 q 576 300 589 308 q 388 233 496 243 q 206 263 281 222 q 68 407 122 308 q 14 613 14 506 q 31 720 14 658 q 71 824 47 782 q 213 956 117 900 q 426 1029 310 1011 z "},"h":{"ha":476,"x_min":10,"x_max":467,"o":"m 103 921 q 114 1068 106 1051 q 144 1083 122 1085 q 175 1065 167 1082 q 192 886 185 1047 l 197 725 l 333 725 l 340 779 q 349 915 344 832 q 358 1014 350 997 q 398 1030 367 1031 q 438 1013 429 1029 q 459 863 451 988 q 464 581 467 739 q 458 392 461 431 q 443 331 456 353 q 396 296 424 299 q 376 297 383 294 q 363 304 368 299 q 350 323 357 310 q 340 351 343 336 q 336 399 338 367 q 336 486 335 432 q 336 492 336 488 q 337 541 336 526 q 336 577 338 556 q 334 605 335 599 q 327 622 333 611 q 317 633 321 632 q 299 638 313 635 q 277 640 286 640 q 247 638 268 639 q 244 638 246 638 l 189 635 l 182 521 q 159 328 175 390 q 117 268 143 265 q 82 503 67 275 q 88 642 90 636 q 51 649 83 649 q 15 661 19 649 q 22 690 10 676 q 53 703 35 703 q 78 710 69 703 q 93 742 88 717 q 101 808 99 768 q 103 921 103 847 z "},"i":{"ha":268,"x_min":8,"x_max":263,"o":"m 53 906 q 124 917 71 919 q 211 899 178 915 q 251 850 242 883 q 247 782 261 817 q 206 733 236 754 q 150 711 176 711 q 87 724 121 711 q 36 753 53 736 q 15 829 10 779 q 53 906 21 879 m 156 853 q 96 851 113 896 q 100 767 75 797 q 151 774 122 739 q 156 853 192 817 m 50 629 q 84 648 58 646 q 121 636 110 650 q 129 463 131 625 l 128 299 l 89 296 q 56 298 67 294 q 38 319 46 301 q 33 374 31 338 q 35 472 35 410 q 50 629 40 610 z "},"j":{"ha":694,"x_min":11,"x_max":686,"o":"m 607 1086 q 661 1087 651 1089 q 679 1071 671 1085 q 679 1050 685 1060 q 654 1035 674 1040 q 608 1029 635 1029 q 564 1027 590 1029 q 512 1022 538 1025 q 463 1015 486 1019 q 426 1008 440 1011 q 413 1001 413 1004 q 439 938 413 993 q 494 785 465 875 q 531 642 522 694 q 515 464 542 557 q 436 324 488 371 q 305 304 388 276 q 185 406 222 332 q 169 445 172 428 q 171 493 167 463 q 204 585 176 547 q 263 618 232 622 q 278 593 276 617 q 271 492 281 569 q 269 442 267 457 q 288 404 272 428 q 339 358 311 369 q 367 351 360 349 q 386 368 375 353 q 432 447 401 386 q 456 510 450 486 q 461 585 461 533 q 458 658 461 636 q 439 708 454 679 q 379 861 414 751 q 333 983 344 971 q 303 988 328 990 q 203 969 278 986 q 55 945 92 947 q 14 958 18 943 q 32 982 11 972 q 126 1011 53 992 q 362 1057 210 1033 q 607 1086 514 1081 z "},"k":{"ha":556,"x_min":6,"x_max":561,"o":"m 143 992 q 152 1001 147 1001 q 179 993 157 1001 q 201 960 200 986 q 189 840 203 933 q 181 746 176 754 q 215 763 185 740 q 290 825 244 785 q 382 911 336 865 q 479 993 465 993 q 476 915 524 993 q 321 742 425 833 q 239 665 239 671 q 301 631 239 660 q 449 509 379 592 q 539 346 518 426 q 479 267 560 267 q 443 274 458 267 q 419 294 428 281 q 411 326 411 307 q 380 408 411 351 q 313 504 349 465 q 251 560 286 533 q 190 599 217 586 q 157 604 163 613 q 136 501 150 592 q 49 285 100 285 q 15 360 7 285 q 79 691 22 413 q 143 992 136 969 z "},"l":{"ha":147,"x_min":13,"x_max":136,"o":"m 50 936 q 64 953 56 950 q 97 956 72 957 q 119 953 114 954 q 131 948 125 951 q 135 938 136 944 q 135 921 133 932 q 114 439 114 524 q 113 344 114 376 q 106 290 111 311 q 92 263 100 268 q 68 258 83 258 q 42 265 50 258 q 25 292 35 271 q 15 354 17 314 q 17 517 13 394 q 50 936 28 874 z "},"m":{"ha":649,"x_min":10,"x_max":642,"o":"m 447 951 l 467 996 l 508 989 q 565 971 551 985 q 589 868 576 958 q 607 657 601 778 q 626 433 611 547 q 631 304 642 324 q 599 286 618 285 q 558 309 579 288 q 526 363 538 331 q 490 688 504 429 q 479 736 489 732 q 418 632 471 739 q 373 543 390 574 q 340 498 356 513 q 314 486 325 483 q 288 506 303 489 q 253 563 269 525 q 201 706 238 600 q 154 821 163 821 q 153 696 146 821 q 126 389 161 510 q 98 325 113 340 q 53 308 83 310 q 23 312 29 308 q 14 329 17 315 q 29 404 11 349 q 63 740 71 521 q 72 929 57 881 q 96 977 83 967 q 133 981 108 988 q 215 915 178 969 q 290 751 251 860 q 326 678 315 678 q 336 692 332 679 q 447 951 342 708 z "},"n":{"ha":446,"x_min":8,"x_max":433,"o":"m 311 935 q 347 958 321 957 q 392 936 372 958 q 433 699 433 893 q 428 574 433 606 q 400 472 424 543 q 356 360 365 371 q 304 350 346 347 l 263 353 l 215 457 q 143 641 168 561 q 110 721 118 721 q 107 521 101 721 q 111 353 113 386 q 99 315 110 319 q 53 361 71 306 q 19 565 35 418 q 19 758 10 674 q 44 860 29 836 q 92 882 58 885 q 135 863 118 881 q 171 799 151 844 q 226 643 190 753 q 267 537 247 579 q 293 494 286 494 q 317 590 311 494 q 313 794 324 686 q 311 935 300 910 z "},"o":{"ha":493,"x_min":14,"x_max":483,"o":"m 201 817 q 265 829 211 829 q 349 817 318 829 q 415 762 378 804 q 468 682 453 719 q 479 556 483 642 q 456 431 476 479 q 386 342 435 383 q 312 299 349 308 q 211 294 275 289 q 108 326 146 300 q 42 407 71 351 q 23 449 28 432 q 16 485 18 465 q 14 543 14 504 q 18 619 14 596 q 39 678 22 643 q 98 756 60 719 q 165 800 136 793 q 201 817 190 804 m 288 761 q 226 774 251 778 q 172 746 200 771 q 137 708 150 725 q 114 672 124 692 q 96 625 104 653 q 84 522 81 574 q 106 431 88 469 q 155 365 125 393 q 221 334 185 338 q 296 350 257 331 q 360 428 331 371 q 397 540 390 485 q 372 672 404 607 q 288 761 340 736 z "},"p":{"ha":604,"x_min":-17,"x_max":614,"o":"m 79 938 q 243 943 90 947 q 433 926 396 939 q 580 820 546 889 q 557 674 614 751 q 429 585 518 622 q 233 542 340 549 l 146 535 l 136 435 q 81 253 118 253 q 57 267 69 253 q 40 299 43 279 q 38 397 38 319 q 46 528 39 447 q 60 694 53 610 q 71 817 68 779 l 74 871 l 43 875 q 42 914 -17 883 q 79 938 71 928 m 392 874 q 292 896 350 890 q 192 894 233 901 l 156 889 l 149 753 q 146 604 142 619 q 246 603 153 585 q 403 654 339 622 q 493 760 482 694 q 484 803 496 781 q 448 844 472 825 q 392 874 424 863 z "},"q":{"ha":674,"x_min":13,"x_max":690,"o":"m 242 976 q 307 990 267 992 q 422 971 347 989 q 576 896 525 947 q 651 742 628 844 q 583 444 689 578 q 556 403 556 410 q 582 356 556 393 q 608 294 617 308 q 549 303 600 281 q 490 336 508 321 q 474 346 481 346 q 449 336 467 346 q 358 313 426 325 q 171 338 256 296 q 38 475 86 381 q 14 595 13 521 q 40 722 15 669 q 133 870 72 793 q 242 976 194 947 m 375 901 q 361 906 371 903 q 297 914 310 918 q 251 871 283 910 q 249 867 250 868 q 246 863 247 865 q 242 860 244 861 q 156 726 189 794 q 126 658 133 682 q 119 599 119 635 q 137 508 119 551 q 186 432 154 465 q 261 378 218 399 q 295 367 282 368 q 336 375 308 367 q 394 400 379 386 q 402 419 406 411 q 368 458 399 428 q 331 514 331 497 q 371 531 332 531 q 435 501 404 531 q 476 478 467 475 q 513 531 488 482 q 533 585 529 564 q 536 661 536 606 q 532 717 535 696 q 524 754 529 739 q 510 789 519 769 q 451 860 489 828 q 375 901 413 892 z "},"r":{"ha":539,"x_min":10,"x_max":529,"o":"m 174 1029 q 322 1025 261 1044 q 428 947 382 1006 q 393 710 510 843 q 314 642 351 665 q 292 589 250 603 q 324 562 300 586 q 374 507 349 538 q 476 413 439 432 q 503 399 492 407 q 519 381 514 390 q 526 364 525 372 q 524 349 528 356 q 474 340 517 338 q 404 354 431 342 q 321 428 372 369 q 275 481 306 446 q 238 522 244 515 q 177 565 214 550 q 132 565 140 579 q 118 471 126 557 q 106 382 114 425 q 88 308 97 339 q 68 267 78 278 q 18 368 33 229 q 16 712 11 446 q 31 992 21 978 q 74 1003 42 1003 q 116 1012 107 1003 q 174 1029 125 1021 m 289 968 q 169 972 258 992 q 131 959 138 965 q 121 929 124 953 q 125 779 119 894 l 133 661 l 156 665 q 222 692 182 669 q 295 747 261 715 q 343 803 329 778 q 348 888 363 843 q 289 968 333 933 z "},"s":{"ha":388,"x_min":8,"x_max":411,"o":"m 151 876 q 185 901 178 899 q 217 893 193 903 q 194 810 269 874 q 122 704 122 749 q 137 682 122 693 q 189 654 151 671 q 294 586 242 629 q 364 510 347 543 q 274 342 411 419 q 133 309 207 304 q 28 358 60 314 q 15 417 8 386 q 46 449 22 449 q 106 413 57 449 q 172 376 154 376 q 236 405 194 376 q 282 451 278 433 q 242 529 290 483 q 110 617 193 575 q 33 670 47 647 q 32 740 18 693 q 66 799 40 769 q 151 876 92 829 z "},"t":{"ha":400,"x_min":3,"x_max":389,"o":"m 169 965 q 197 970 179 971 q 222 963 215 969 q 240 803 224 961 q 256 643 256 644 q 317 632 258 633 q 377 624 367 629 q 388 599 388 619 q 333 557 388 557 q 281 551 301 557 q 263 535 265 547 q 261 413 260 518 q 262 324 261 357 q 257 275 263 292 q 242 253 251 258 q 215 249 233 249 q 174 275 183 249 q 161 407 164 301 l 157 535 l 94 539 q 23 558 43 543 q 22 588 3 572 q 92 611 42 604 q 149 625 142 618 q 157 794 157 631 q 169 965 157 957 z "},"u":{"ha":401,"x_min":14,"x_max":390,"o":"m 46 847 q 81 856 53 858 l 108 853 l 108 685 q 120 497 108 544 q 175 410 132 450 q 219 388 201 385 q 254 421 236 390 q 272 520 269 447 q 264 685 275 593 q 260 746 258 733 q 274 764 263 758 q 324 763 296 775 q 369 724 351 751 q 385 678 382 701 q 389 590 389 656 q 372 446 389 500 q 317 358 356 392 q 281 335 296 339 q 219 331 265 331 q 176 332 192 331 q 147 338 160 333 q 122 351 135 343 q 60 413 83 378 q 25 498 36 449 q 14 617 14 547 q 24 753 14 675 q 46 847 35 831 z "},"v":{"ha":599,"x_min":8,"x_max":586,"o":"m 14 924 q 51 939 19 939 q 100 914 83 939 q 165 766 128 874 q 228 572 203 658 q 257 485 254 485 q 332 613 261 485 q 417 751 369 679 q 504 872 465 824 q 556 925 543 921 q 586 919 586 935 q 464 640 586 892 q 433 579 451 615 q 317 358 358 425 q 246 268 276 290 q 228 260 233 260 q 215 271 224 260 q 203 306 203 288 q 183 347 203 322 q 144 457 165 372 q 42 814 88 681 q 14 924 10 913 z "},"w":{"ha":775,"x_min":11,"x_max":764,"o":"m 640 889 q 694 919 658 933 q 750 846 731 904 q 762 788 760 818 q 761 694 764 758 q 731 489 754 561 q 653 354 708 417 q 614 317 626 322 q 558 313 601 313 q 517 315 529 313 q 498 322 506 317 q 481 342 490 326 q 431 444 460 372 q 393 518 400 517 q 386 508 392 519 q 372 478 381 497 q 354 436 363 460 q 320 358 335 383 q 288 322 306 332 q 242 313 271 313 q 206 317 217 313 q 179 339 194 322 q 127 460 150 375 q 96 661 104 546 q 78 775 89 744 q 40 822 68 806 q 20 838 28 831 q 14 847 13 844 q 51 860 22 860 q 107 847 79 860 q 190 692 172 819 q 232 468 225 476 q 251 488 242 458 q 282 657 264 528 q 306 760 293 742 q 364 779 318 779 q 376 781 368 779 q 419 763 407 781 q 476 635 432 744 q 494 590 488 607 q 561 450 550 456 q 581 464 571 447 q 599 514 590 481 q 613 590 607 547 q 623 688 619 633 q 626 796 626 742 q 640 889 626 854 z "},"x":{"ha":542,"x_min":7,"x_max":540,"o":"m 57 876 q 106 874 82 892 q 183 782 131 856 q 261 685 250 686 q 284 704 265 685 q 322 751 303 724 q 468 858 438 901 l 471 851 q 462 808 476 838 q 392 692 447 779 q 358 640 369 660 q 340 606 347 621 q 333 585 333 592 q 336 572 333 579 q 436 450 344 553 q 528 313 539 335 q 497 303 522 303 q 422 326 460 303 q 331 407 385 350 q 258 475 265 475 q 215 418 251 475 q 119 300 178 360 q 42 240 61 240 q 15 249 22 240 q 36 324 7 263 q 118 468 65 386 l 193 583 l 129 694 q 58 831 72 794 q 57 876 44 867 z "},"y":{"ha":435,"x_min":11,"x_max":425,"o":"m 39 851 q 83 867 46 867 q 126 854 113 867 q 194 771 140 842 q 272 675 267 675 q 313 729 281 675 q 406 819 374 825 q 419 811 415 817 q 422 793 424 806 q 411 762 419 781 q 385 714 403 743 q 345 648 368 685 q 288 557 322 611 q 182 397 219 456 q 92 299 140 328 q 18 299 43 269 q 15 318 11 307 q 42 356 19 329 q 151 500 103 433 q 200 572 200 567 q 185 594 200 583 q 94 728 154 621 q 39 851 33 835 z "},"z":{"ha":651,"x_min":3,"x_max":644,"o":"m 390 819 q 554 829 499 825 q 588 817 575 829 q 597 788 600 804 q 381 563 593 772 q 165 349 169 356 q 188 346 164 347 q 253 344 211 344 q 342 343 294 343 q 492 339 436 343 q 581 327 549 335 q 628 306 613 319 q 633 279 643 292 q 585 268 625 268 q 433 278 544 268 q 284 283 351 285 q 42 264 217 281 q 15 276 24 263 q 65 375 4 294 q 226 557 125 456 q 397 717 354 682 q 444 758 443 751 q 319 760 444 765 q 122 785 122 753 q 179 804 122 797 q 390 819 236 811 z "},"{":{"ha":446,"x_min":10,"x_max":435,"o":"m 257 1082 q 281 1107 271 1103 q 336 1111 292 1111 l 396 1111 l 372 1089 q 337 1032 344 1064 q 331 917 329 1000 q 322 793 332 817 q 281 742 317 776 q 211 683 246 707 l 189 668 l 207 649 q 217 633 214 640 q 223 608 221 626 q 225 565 225 590 q 225 490 225 540 q 238 332 226 353 q 263 303 249 314 q 302 287 278 292 q 364 282 326 282 q 399 279 383 281 q 424 276 415 278 q 433 271 433 274 q 401 240 433 263 q 364 224 381 226 q 297 224 347 221 q 135 299 174 232 q 122 531 96 367 q 126 593 131 569 q 108 626 122 617 q 63 643 94 636 q 14 671 11 654 q 28 681 15 676 q 127 726 76 697 q 200 776 178 754 l 235 813 l 233 888 q 257 1082 229 1035 z "},"|":{"ha":1415,"x_min":14,"x_max":1403,"o":"m 708 -106 q 361 -106 708 -106 q 14 -97 14 -106 q 708 -87 14 -87 q 1403 -97 1403 -87 q 708 -106 1403 -106 z "},"}":{"ha":464,"x_min":11,"x_max":461,"o":"m 279 1081 l 276 1111 l 315 1111 q 348 1107 342 1111 q 358 1082 354 1103 q 335 888 365 1046 q 329 834 331 854 q 341 798 328 814 q 376 771 354 782 q 439 744 397 760 q 440 715 461 738 q 392 672 428 701 q 316 590 333 626 q 290 457 299 553 q 252 272 279 328 q 164 196 225 217 q 79 185 131 185 q 18 199 28 186 q 16 213 11 207 q 46 231 21 219 q 96 249 86 249 q 128 272 108 249 q 158 324 147 296 q 182 468 174 361 q 196 573 188 536 q 221 635 204 610 q 271 690 238 661 l 313 729 l 283 754 q 247 823 251 781 q 264 956 243 865 q 279 1081 283 1049 z "},"~":{"ha":746,"x_min":13,"x_max":736,"o":"m 82 824 q 186 838 113 839 q 294 815 253 833 q 399 743 336 797 q 479 688 458 692 q 523 693 499 683 q 573 726 547 703 q 619 779 599 749 q 676 836 656 829 q 717 810 696 843 q 733 756 735 779 q 711 706 732 733 q 596 634 676 660 q 446 621 515 608 q 372 644 400 629 q 299 701 344 660 q 178 775 214 775 q 140 744 161 775 q 118 693 118 714 q 101 651 118 672 q 68 631 85 631 q 35 647 57 631 q 17 670 21 658 q 14 711 14 682 q 82 824 15 789 z "},"":{"ha":1415,"x_min":14,"x_max":1403,"o":"m 708 -106 q 361 -106 708 -106 q 14 -97 14 -106 q 708 -87 14 -87 q 1403 -97 1403 -87 q 708 -106 1403 -106 z "},"":{"ha":640,"x_min":7,"x_max":631,"o":"m 293 1081 l 335 1111 l 619 1111 l 625 1078 q 625 1028 629 1058 q 611 974 621 997 q 592 950 601 951 q 564 970 575 946 q 549 1043 553 994 l 543 1097 l 500 1097 q 438 1083 475 1097 q 366 1048 401 1069 q 308 1003 331 1026 q 278 962 283 978 q 269 888 274 946 q 266 838 267 853 q 269 806 265 822 q 276 784 272 789 q 294 774 279 779 q 324 769 310 769 q 368 768 338 768 q 531 743 511 765 q 507 718 542 728 q 399 701 475 710 q 303 688 308 692 q 297 635 299 685 q 292 594 297 611 q 276 558 288 576 q 246 521 264 539 q 196 478 228 503 q 146 428 143 435 q 151 428 146 428 q 167 428 157 428 q 189 428 176 428 q 217 428 201 428 q 251 427 233 428 q 289 426 268 426 q 329 426 310 426 q 529 413 506 425 q 489 372 571 389 q 213 354 399 354 q 113 354 150 354 q 56 356 76 354 q 28 360 36 358 q 18 368 21 363 q 29 413 7 385 q 126 504 51 440 q 209 588 193 561 q 215 654 225 615 l 207 689 l 133 696 q 56 706 72 700 q 39 726 39 711 q 55 744 39 739 q 128 756 71 750 l 189 761 l 186 803 q 193 921 183 836 q 218 1010 201 983 q 293 1081 235 1036 z "},"":{"ha":1415,"x_min":14,"x_max":1403,"o":"m 708 -106 q 361 -106 708 -106 q 14 -97 14 -106 q 708 -87 14 -87 q 1403 -97 1403 -87 q 708 -106 1403 -106 z "},"":{"ha":1415,"x_min":14,"x_max":1403,"o":"m 708 -106 q 361 -106 708 -106 q 14 -97 14 -106 q 708 -87 14 -87 q 1403 -97 1403 -87 q 708 -106 1403 -106 z "},"":{"ha":13,"x_min":0,"x_max":0,"o":""},"":{"ha":13,"x_min":0,"x_max":0,"o":""},"":{"ha":13,"x_min":0,"x_max":0,"o":""},"":{"ha":13,"x_min":0,"x_max":0,"o":""},"":{"ha":13,"x_min":0,"x_max":0,"o":""},"":{"ha":13,"x_min":0,"x_max":0,"o":""},"":{"ha":13,"x_min":0,"x_max":0,"o":""},"":{"ha":13,"x_min":0,"x_max":0,"o":""},"":{"ha":13,"x_min":0,"x_max":0,"o":""},"":{"ha":13,"x_min":0,"x_max":0,"o":""},"":{"ha":13,"x_min":0,"x_max":0,"o":""},"":{"ha":13,"x_min":0,"x_max":0,"o":""},"":{"ha":13,"x_min":0,"x_max":0,"o":""},"":{"ha":13,"x_min":0,"x_max":0,"o":""},"":{"ha":13,"x_min":0,"x_max":0,"o":""},"":{"ha":13,"x_min":0,"x_max":0,"o":""},"":{"ha":13,"x_min":0,"x_max":0,"o":""},"":{"ha":13,"x_min":0,"x_max":0,"o":""},"":{"ha":13,"x_min":0,"x_max":0,"o":""},"":{"ha":13,"x_min":0,"x_max":0,"o":""},"":{"ha":13,"x_min":0,"x_max":0,"o":""},"":{"ha":13,"x_min":0,"x_max":0,"o":""},"":{"ha":13,"x_min":0,"x_max":0,"o":""},"":{"ha":13,"x_min":0,"x_max":0,"o":""},"":{"ha":13,"x_min":0,"x_max":0,"o":""},"":{"ha":13,"x_min":0,"x_max":0,"o":""},"":{"ha":13,"x_min":0,"x_max":0,"o":""},"":{"ha":13,"x_min":0,"x_max":0,"o":""},"":{"ha":13,"x_min":0,"x_max":0,"o":""},"":{"ha":13,"x_min":0,"x_max":0,"o":""},"":{"ha":13,"x_min":0,"x_max":0,"o":""},"":{"ha":13,"x_min":0,"x_max":0,"o":""},"":{"ha":13,"x_min":0,"x_max":0,"o":""},"":{"ha":13,"x_min":0,"x_max":0,"o":""},"":{"ha":13,"x_min":0,"x_max":0,"o":""},"":{"ha":13,"x_min":0,"x_max":0,"o":""},"":{"ha":13,"x_min":0,"x_max":0,"o":""},"":{"ha":13,"x_min":0,"x_max":0,"o":""},"":{"ha":1415,"x_min":14,"x_max":1403,"o":"m 708 -106 q 361 -106 708 -106 q 14 -97 14 -106 q 708 -87 14 -87 q 1403 -97 1403 -87 q 708 -106 1403 -106 z "},"":{"ha":157,"x_min":7,"x_max":146,"o":"m 24 1092 q 31 1105 26 1101 q 47 1110 35 1108 q 86 1111 58 1111 l 144 1111 l 140 1078 q 108 923 126 971 q 65 875 90 875 q 37 890 46 875 q 19 950 28 906 q 24 1092 8 1014 z "},"":{"ha":442,"x_min":11,"x_max":432,"o":"m 294 465 q 358 471 317 476 q 417 450 399 465 q 428 428 426 440 q 428 381 431 415 q 401 306 422 335 q 350 274 381 278 q 331 277 333 272 q 329 311 328 282 q 328 343 331 338 q 308 349 325 349 q 271 371 286 349 q 265 423 257 394 q 294 465 272 451 m 28 438 q 50 453 38 450 q 94 457 63 457 q 172 431 153 457 q 172 347 190 406 q 131 281 160 311 q 72 243 101 251 q 44 289 19 229 q 54 322 56 315 q 36 344 53 329 q 15 389 17 364 q 28 438 13 414 z "},"":{"ha":378,"x_min":14,"x_max":371,"o":"m 57 1086 q 110 1111 82 1111 q 143 1101 139 1111 q 131 1060 147 1092 q 101 956 114 1025 q 81 889 93 899 q 39 906 68 879 q 19 932 24 919 q 14 969 14 944 q 57 1086 14 1040 m 258 1054 q 279 1088 271 1083 q 318 1093 288 1093 q 363 1080 356 1093 q 356 1024 371 1067 q 340 946 340 983 q 317 878 340 890 q 257 903 293 867 q 235 932 238 921 q 236 974 232 943 q 258 1054 243 1017 z "},"":{"ha":1415,"x_min":14,"x_max":1403,"o":"m 708 -106 q 361 -106 708 -106 q 14 -97 14 -106 q 708 -87 14 -87 q 1403 -97 1403 -87 q 708 -106 1403 -106 z "},"":{"ha":688,"x_min":10,"x_max":678,"o":"m 324 1085 l 361 1111 l 508 1111 q 665 1100 654 1111 q 675 1042 676 1089 q 661 976 674 994 q 627 958 649 960 q 593 971 606 956 q 576 1024 582 986 l 571 1061 l 528 1064 q 378 989 450 1069 q 328 915 353 961 q 310 863 304 868 q 390 857 317 857 q 513 829 513 857 q 375 786 513 792 q 278 772 286 782 q 265 735 268 761 l 263 707 l 351 703 q 454 683 440 697 q 465 668 465 672 q 449 658 464 664 q 344 642 426 649 l 263 635 l 265 603 q 290 509 268 558 q 342 433 313 460 q 378 408 365 413 q 413 406 390 403 q 582 510 468 413 q 645 539 632 551 q 631 464 658 526 q 603 419 621 440 q 562 380 585 397 q 514 353 539 363 q 404 337 481 338 q 293 350 328 336 q 198 438 242 374 q 144 571 154 501 q 127 633 138 621 q 76 651 117 646 q 23 664 36 656 q 15 688 10 672 q 71 703 22 703 q 126 713 113 703 q 142 757 139 722 l 144 789 l 93 793 q 22 821 18 800 q 101 847 29 840 l 163 853 l 200 924 q 259 1022 232 986 q 324 1085 286 1057 z "}}}
